<svg width="45" height="45" viewBox="0 0 45 45" fill="none" xmlns="http://www.w3.org/2000/svg">
<g clip-path="url(#clip0_4001_49)">
<path d="M36.7333 20.0888L34.8986 18.9356L33.1182 14.5878C32.4696 13.0047 31.3109 11.6836 29.8257 10.8346L25.0161 8.08559C23.4231 7.1751 21.5252 6.96155 19.7698 7.49542L16.1437 8.59851L14.0621 7.40753C13.8341 7.27741 13.5859 7.26505 13.3662 7.33509L13.3645 7.33406L13.3521 7.34092C13.2364 7.38006 13.13 7.44186 13.0393 7.52391L0.440481 14.8937C0.183677 15.0406 0 15.3149 0 15.6528V18.7011L0.733678 20.1932C1.23252 21.2077 2.0486 22.032 3.05831 22.5409L18.5479 30.3466L30.0053 36.9395C31.4403 37.7652 33.1446 37.9866 34.7424 37.5547C38.27 36.6009 41.4461 34.6763 43.9173 32.0145C44.6174 31.2606 44.9998 30.2653 44.9998 29.2363V28.2634C42.8757 24.9661 40.0539 22.1759 36.7333 20.0888Z" fill="#ED5100"/>
<path d="M36.7333 20.0888L34.8986 18.9356L34.1512 19.3744L41.4427 28.962L35.1698 32.4334L22.7141 26.0874L22.1453 26.4214L24.0074 27.5918C26.2902 29.0266 29.353 32.3623 31.0273 34.2859C31.7998 35.1738 32.9884 35.5785 34.143 35.3526C38.5457 34.4902 42.44 31.9476 45.0002 28.263C42.8757 24.9661 40.0539 22.1759 36.7333 20.0888Z" fill="#E33400"/>
<path d="M10.2705 23.1509L6.72193 20.6546C6.20008 19.35 5.33044 18.1906 4.34546 17.6217C2.74867 16.6999 1.45435 17.6784 1.45435 19.8077C1.45435 21.9366 2.74867 24.4096 4.34546 25.3314C5.10248 25.7684 5.79084 25.7777 6.30616 25.4406L10.2705 23.1509Z" fill="#23292E"/>
<path d="M30.5996 34.7882L27.051 32.2919C26.5292 30.9873 25.6595 29.8279 24.6746 29.2593C23.0778 28.3375 21.7834 29.316 21.7834 31.4449C21.7834 33.5739 23.0778 36.0468 24.6746 36.969C25.4316 37.4057 26.1199 37.4153 26.6353 37.0782L30.5996 34.7882Z" fill="#23292E"/>
<path d="M34.143 35.3526C32.988 35.5785 31.7995 35.1738 31.027 34.2859C29.3526 32.3623 26.2898 29.0266 24.0074 27.5918L22.1449 26.4214L20.3645 22.0736C19.7163 20.4905 18.5576 19.1694 17.072 18.3204L12.2628 15.5714C10.6697 14.6609 8.77186 14.4474 7.01612 14.9812L3.38996 16.0843L1.30874 14.8937C0.725781 14.56 0 14.9809 0 15.6528V18.7011L0.733678 20.1932C1.23252 21.2077 2.0486 22.0321 3.05831 22.5409L18.5479 30.3466L30.0053 36.9395C31.4403 37.7652 33.1446 37.9866 34.7424 37.5547C38.27 36.601 41.4461 34.6763 43.9173 32.0145C44.6174 31.2606 44.9998 30.2653 44.9998 29.2363V28.2634C42.4397 31.9476 38.5457 34.4902 34.143 35.3526Z" fill="#872E02"/>
<path d="M3.3903 16.0843L16.1437 8.59852L14.0621 7.40753C13.8341 7.27741 13.5859 7.26505 13.3662 7.33509L13.3645 7.33406L13.3521 7.34093C13.2364 7.38006 13.13 7.44186 13.0393 7.52392L0.440481 14.8937C0.183677 15.0406 0 15.3149 0 15.6528V18.7011L0.733678 20.1932C1.23252 21.2077 2.0486 22.032 3.05831 22.5409L18.5479 30.3466L24.4459 33.7404V31.1133L3.3903 16.0843Z" fill="#E33400"/>
<path d="M44.077 30.1348V31.2849C41.7311 33.6611 38.8468 35.5308 35.6684 36.5546L34.4128 36.9587V35.7248L36.4017 35.09C39.0374 34.2488 41.4327 32.7873 43.3862 30.828L44.077 30.1348Z" fill="#23292E"/>
<path d="M27.5657 34.7831C27.5657 36.912 26.2713 37.8905 24.6746 36.9687C23.0778 36.0468 21.7834 33.5739 21.7834 31.4449C21.7834 29.316 23.0778 28.3375 24.6746 29.2593C26.2713 30.1812 27.5657 32.6541 27.5657 34.7831Z" fill="#2E373D"/>
<path d="M26.0959 33.9347C26.0959 34.9815 25.4597 35.4625 24.6745 35.0093C23.8893 34.5561 23.2532 33.3401 23.2532 32.2933C23.2532 31.2465 23.8893 30.7655 24.6745 31.2187C25.4597 31.6719 26.0959 32.8879 26.0959 33.9347Z" fill="#CECECE"/>
<path d="M25.4456 33.5591C25.4456 34.127 25.1003 34.3876 24.6745 34.1421C24.2488 33.8963 23.9034 33.2367 23.9034 32.6689C23.9034 32.1014 24.2488 31.8401 24.6745 32.0863C25.1003 32.3317 25.4456 32.9913 25.4456 33.5591Z" fill="#627681"/>
<path d="M7.23656 23.1458C7.23656 25.2751 5.94224 26.2536 4.34545 25.3317C2.74867 24.4096 1.45435 21.9366 1.45435 19.8077C1.45435 17.6787 2.74867 16.7003 4.34545 17.6221C5.94224 18.5439 7.23656 21.0169 7.23656 23.1458Z" fill="#2E373D"/>
<path d="M5.76677 22.2974C5.76677 23.3442 5.1306 23.8252 4.34542 23.372C3.56059 22.9189 2.92407 21.7028 2.92407 20.656C2.92407 19.6092 3.56059 19.1282 4.34542 19.5814C5.1306 20.0346 5.76677 21.2506 5.76677 22.2974Z" fill="#CECECE"/>
<path d="M5.11654 21.9218C5.11654 22.4897 4.77116 22.7503 4.34544 22.5045C3.91972 22.2586 3.57434 21.5991 3.57434 21.0316C3.57434 20.4638 3.91972 20.2028 4.34544 20.4486C4.77116 20.6945 5.11654 21.354 5.11654 21.9218Z" fill="#627681"/>
<path d="M22.7141 26.0874L34.1512 19.374L32.4078 15.2346C32.1709 14.6719 31.4939 14.4443 30.9648 14.7498L21.6653 20.1187C21.0562 20.4703 20.7963 21.2146 21.0538 21.869L22.7141 26.0874Z" fill="#3B2F25"/>
<path d="M20.8973 26.1028L19.3372 21.9606C19.043 21.1796 18.4909 20.5225 17.7723 20.0981L11.5156 16.4036C10.8503 16.0109 10.0383 15.957 9.32698 16.2584L8.35881 16.6687C7.45725 17.0508 7.38069 18.2991 8.22869 18.7887L20.8973 26.1028Z" fill="#24170C"/>
<path d="M33.2239 19.016L31.6642 14.8734C31.6316 14.7873 31.5949 14.7031 31.5561 14.6201C31.358 14.6032 31.1523 14.6417 30.9649 14.7498L28.3999 16.2306L33.2239 19.016Z" fill="#625951"/>
<path d="M43.22 25.273C43.1184 25.273 43.0168 25.3019 42.9186 25.3585L41.7836 26.0139L39.8521 26.8753L41.4427 28.962C41.5422 29.0636 41.673 29.1162 41.8028 29.1162C41.9044 29.1162 42.006 29.0873 42.1042 29.0303L43.2396 28.3749C43.5335 28.2053 43.7553 27.794 43.7553 27.4184V25.9051C43.7553 25.49 43.4858 25.273 43.22 25.273Z" fill="#872E02"/>
<path d="M43.2201 25.273C43.1184 25.273 43.0168 25.3019 42.9186 25.3585L41.7836 26.0139C41.4894 26.1835 41.2679 26.5948 41.2679 26.9704V28.4841C41.2679 28.8992 41.5371 29.1162 41.8028 29.1162C41.9045 29.1162 42.0061 29.0873 42.1043 29.0307L43.2396 28.3753C43.5335 28.2053 43.7553 27.7944 43.7553 27.4188V25.9051C43.7553 25.49 43.4858 25.273 43.2201 25.273Z" fill="#E33400"/>
<path d="M43.079 28.0972L41.944 28.7526C41.7476 28.8659 41.5886 28.7454 41.5886 28.4841V26.9704C41.5886 26.7088 41.7476 26.4049 41.944 26.2917L43.079 25.6362C43.2754 25.5233 43.4343 25.6435 43.4343 25.9051V27.4184C43.4343 27.6801 43.2754 27.9839 43.079 28.0972Z" fill="white"/>
<path d="M18.321 27.4669L8.82642 21.262V24.6928L18.321 29.7939V27.4669Z" fill="#872E02"/>
<path d="M8.82642 21.262L12.881 23.9117L10.1637 22.5972V24.9795L12.881 26.8712L8.82642 24.6928V21.262Z" fill="#23292E"/>
<path d="M34.6346 30.2876C34.533 30.2876 34.4317 30.3164 34.3332 30.3734L33.1981 31.0288L30.5508 32.2092L32.8558 33.9759C32.9557 34.0782 33.0869 34.1311 33.2174 34.1311C33.319 34.1311 33.4206 34.1022 33.5188 34.0453L34.6542 33.3899C34.948 33.2203 35.1698 32.809 35.1698 32.4334V30.92C35.1698 30.5049 34.9007 30.2876 34.6346 30.2876Z" fill="#872E02"/>
<path d="M34.6346 30.2876C34.533 30.2876 34.4317 30.3164 34.3332 30.3734L33.1982 31.0288C32.9043 31.1984 32.6825 31.6097 32.6825 31.9853V33.4987C32.6825 33.9138 32.9517 34.1311 33.2177 34.1311C33.3194 34.1311 33.4206 34.1022 33.5192 34.0453L34.6542 33.3899C34.9484 33.2203 35.1699 32.809 35.1699 32.4334V30.92C35.1699 30.5049 34.9007 30.2876 34.6346 30.2876Z" fill="#E33400"/>
<path d="M34.4939 33.1121L33.3585 33.7675C33.1625 33.8808 33.0035 33.7603 33.0035 33.4987V31.9853C33.0035 31.7237 33.1625 31.4199 33.3585 31.3066L34.4939 30.6512C34.6899 30.5382 34.8489 30.6584 34.8489 30.9196V32.4334C34.8489 32.695 34.6899 32.9988 34.4939 33.1121Z" fill="white"/>
</g>
<defs>
<clipPath id="clip0_4001_49">
<rect width="45" height="45" fill="white"/>
</clipPath>
</defs>
</svg>
