<svg width="47" height="47" viewBox="0 0 47 47" fill="none" xmlns="http://www.w3.org/2000/svg">
<g clip-path="url(#clip0_4014_221)">
<path d="M11.7109 26.6415L7.28171 23.5255C6.63016 21.8968 5.54438 20.4495 4.31481 19.7396C2.32145 18.5885 0.705688 19.8102 0.705688 22.4676C0.705688 25.1254 2.32145 28.2128 4.31481 29.3635C5.25967 29.9089 6.11919 29.9208 6.76248 29.4998L11.7109 26.6415Z" fill="#23292E"/>
<path d="M33.9303 39.4138L29.4011 36.2275C28.7453 34.6397 27.6796 33.2366 26.4747 32.5409C24.4817 31.3902 22.866 32.6119 22.866 35.2694C22.866 37.9268 24.4817 41.0142 26.4747 42.1649C27.3644 42.6784 28.178 42.7185 28.8073 42.3703L28.8069 42.3729L33.9303 39.4138Z" fill="#23292E"/>
<path d="M46.607 27.3035L46.6066 27.3031C46.5009 26.8868 46.3771 26.4748 46.2341 26.0696V26.037L39.8707 20.4671L35.6742 13.3367C34.6429 11.5843 33.1763 10.1278 31.4168 9.10905L25.3582 5.60033C22.5892 3.99675 19.2085 4.02472 16.4941 5.58598L16.4908 5.58276L5.82593 11.7461C4.99187 12.0699 4.19833 12.5231 3.4765 13.104H3.47615L1.71838 16.2904C0.564109 16.9566 -0.1007 18.2303 0.0126113 19.5585L0.203735 21.8007C0.295173 22.8768 0.906554 23.8403 1.84066 24.3821L25.6755 38.2022C29.7569 40.5685 34.753 40.6431 38.8871 38.4475C38.9434 38.4184 38.9997 38.3879 39.0556 38.3564C39.2285 38.2614 39.4006 38.1638 39.5706 38.0606L43.8068 35.6122C45.1408 34.8416 46.1738 33.5937 46.6733 32.1354C47.2134 30.5572 47.0075 28.8898 46.607 27.3035Z" fill="#FFD613"/>
<path d="M46.607 27.3035L46.6066 27.3031C46.498 26.8757 46.3711 26.4526 46.223 26.037L45.03 28.8522C44.5911 29.8878 43.9019 30.7663 43.0509 31.43C41.9376 32.2978 40.5305 32.7876 39.1187 32.7973L34.663 32.8285C34.663 32.8285 34.6264 32.8791 34.5633 32.9734L27.9938 27.2056L23.7973 20.0752C22.7657 18.3224 21.2994 16.8662 19.5395 15.8472L13.4809 12.3384C10.3086 10.5014 6.3326 10.8055 3.47615 13.104L1.71838 16.29C0.564109 16.9566 -0.1007 18.2303 0.0126113 19.5581L0.203735 21.8007C0.295173 22.8768 0.906554 23.8403 1.84066 24.3821L25.6755 38.2022C29.7569 40.5685 34.753 40.6431 38.8867 38.4475C38.9438 38.4184 39.0001 38.3876 39.056 38.356C39.2285 38.2614 39.3999 38.1642 39.5691 38.0613L43.8068 35.6125C45.1408 34.8416 46.1738 33.5937 46.673 32.1354C47.2134 30.5572 47.0075 28.8898 46.607 27.3035Z" fill="#C98000"/>
<path d="M28.5932 26.6437L39.053 20.6177L34.5589 13.4719C34.2807 13.0298 33.7027 12.8867 33.2501 13.1488L24.987 17.9355C24.4602 18.2407 24.2756 18.9123 24.5725 19.4437L28.5932 26.6437Z" fill="#304E75"/>
<path d="M13.3098 13.5289C12.9498 13.3496 12.5866 13.1754 12.2208 13.0068C9.73729 11.864 6.82274 12.2111 4.67664 13.9047C4.67664 15.1382 5.33607 16.2775 6.40571 16.8921L13.3098 20.8587V13.5289Z" fill="#243B58"/>
<path d="M25.5364 26.951L23.3021 21.942C22.5939 20.3542 21.5127 18.9607 20.1509 17.88C18.3863 16.4797 16.5041 15.2372 14.5276 14.1636V21.5586L24.9053 27.5208C25.2804 27.7366 25.7124 27.3461 25.5364 26.951Z" fill="#243B58"/>
<path d="M36.5197 20.5768C36.8952 20.7927 37.3273 20.4022 37.1512 20.0071L34.9169 14.998C34.6038 14.2966 34.2144 13.6358 33.764 13.0205C33.5894 13.0154 33.4119 13.0552 33.2506 13.1488L28.4406 15.935L36.5197 20.5768Z" fill="#59718B"/>
<path d="M37.1397 35.1457L38.7203 34.2445C39.2475 33.944 39.5727 33.3843 39.5727 32.7776C39.4224 32.7891 39.2711 32.7966 39.1187 32.7977L34.663 32.8289L34.0649 33.3137C33.6392 33.6586 33.5998 34.2937 33.9795 34.6888C34.8043 35.5465 36.1059 35.7348 37.1397 35.1457Z" fill="white"/>
<path d="M46.2229 26.037L45.0299 28.8522C44.8492 29.2789 44.6247 29.6773 44.3651 30.0466L44.364 30.0506L44.5731 30.1434C45.0242 30.3432 45.5437 30.3156 45.9708 30.0689L46.9831 29.4844C46.8766 28.305 46.6188 27.1475 46.2229 26.037Z" fill="white"/>
<path d="M45.9708 30.0689C45.5437 30.3156 45.0241 30.3432 44.573 30.1434L44.364 30.0509V30.0506C43.2631 31.6154 41.5107 32.6288 39.5726 32.7783C39.5722 33.3847 39.247 33.9444 38.7203 34.2445L37.1396 35.1457C36.9804 35.2364 36.8144 35.3063 36.6455 35.3604V35.3612L38.4234 34.9244C41.6495 34.1323 44.5246 32.2974 46.6015 29.7045L45.9708 30.0689Z" fill="#2E373D"/>
<path d="M44.8724 29.1936C44.881 29.1763 44.8893 29.1591 44.8979 29.1416C44.8893 29.1591 44.8807 29.1763 44.8724 29.1936Z" fill="#2E373D"/>
<path d="M30.0838 39.4368C30.0838 42.0942 28.4681 43.3159 26.4747 42.1649C24.4817 41.0142 22.8656 37.9268 22.8656 35.2694C22.8656 32.6116 24.4817 31.3902 26.4747 32.5409C28.4681 33.6916 30.0838 36.779 30.0838 39.4368Z" fill="#2E373D"/>
<path d="M28.807 38.6996C28.807 40.4168 27.7628 41.2064 26.4748 40.4627C25.1868 39.719 24.1426 37.7239 24.1426 36.0066C24.1426 34.289 25.1868 33.4998 26.4748 34.2435C27.7628 34.9868 28.807 36.982 28.807 38.6996Z" fill="#CECECE"/>
<path d="M27.7399 38.0832C27.7399 39.0147 27.1737 39.4429 26.4748 39.0395C25.7763 38.6361 25.2097 37.5542 25.2097 36.6226C25.2097 35.6911 25.7763 35.2629 26.4748 35.6663C27.1737 36.0697 27.7399 37.1519 27.7399 38.0832Z" fill="#627681"/>
<path d="M7.92393 26.6351C7.92393 29.2929 6.30817 30.5142 4.31481 29.3635C2.32182 28.2125 0.706055 25.1255 0.706055 22.4676C0.706055 19.8102 2.32182 18.5885 4.31481 19.7392C6.30817 20.8902 7.92393 23.9776 7.92393 26.6351Z" fill="#2E373D"/>
<path d="M6.64697 25.8978C6.64697 27.6154 5.60278 28.4047 4.31476 27.661C3.02673 26.9176 1.98254 24.9225 1.98254 23.2049C1.98254 21.4876 3.02673 20.698 4.31476 21.4417C5.60278 22.1854 6.64697 24.1806 6.64697 25.8978Z" fill="#CECECE"/>
<path d="M5.57984 25.2818C5.57984 26.2134 5.01328 26.6415 4.31476 26.2381C3.61625 25.8347 3.05005 24.7525 3.05005 23.8213C3.05005 22.8897 3.61625 22.4615 4.31476 22.8649C5.01328 23.2684 5.57984 24.3502 5.57984 25.2818Z" fill="#627681"/>
<path d="M46.5464 31.3583C44.4802 33.5471 41.8762 35.1561 38.9939 36.0238L36.5889 36.7482C35.7746 36.9934 35.108 37.5819 34.7634 38.3596C34.5848 38.7627 34.9359 39.1994 35.368 39.1119L37.1171 38.758L38.1785 37.1967L40.401 36.424C42.4585 35.7083 44.3479 34.5795 45.9529 33.1068L46.0558 33.4205C46.337 32.9673 46.569 32.4835 46.7267 31.9697C46.7267 31.9614 46.7267 31.9536 46.7267 31.9453L46.5464 31.3583Z" fill="#2E373D"/>
</g>
<defs>
<clipPath id="clip0_4014_221">
<rect width="47" height="47" fill="white"/>
</clipPath>
</defs>
</svg>
