<svg width="23" height="23" viewBox="0 0 23 23" fill="none" xmlns="http://www.w3.org/2000/svg">
<g clip-path="url(#clip0_4001_133)">
<rect width="23" height="23" fill="white"/>
<path d="M19.6318 3.36824C17.4596 1.19618 14.5718 0 11.5 0C8.42824 0 5.54035 1.19618 3.36824 3.36824C1.19618 5.54035 0 8.42824 0 11.5C0 14.5718 1.19618 17.4596 3.36824 19.6318C5.54035 21.8038 8.42824 23 11.5 23C14.5718 23 17.4596 21.8038 19.6318 19.6318C21.8038 17.4596 23 14.5718 23 11.5C23 8.42824 21.8038 5.54035 19.6318 3.36824ZM14.9366 16.5465L10.75 11.7827V4.64115H12.25V11.2173L16.0634 15.5563L14.9366 16.5465Z" fill="#092A69"/>
</g>
<defs>
<clipPath id="clip0_4001_133">
<rect width="23" height="23" fill="white"/>
</clipPath>
</defs>
</svg>
