<svg width="21" height="21" viewBox="0 0 21 21" fill="none" xmlns="http://www.w3.org/2000/svg">
<path d="M14.0241 2.40264C10.8203 -0.800881 5.60602 -0.800881 2.40228 2.40264C-0.800761 5.60686 -0.800761 10.8201 2.40228 14.0244C5.2553 16.8765 9.69872 17.1821 12.9004 14.9549C12.9677 15.2737 13.1219 15.5779 13.3699 15.8258L18.0355 20.4911C18.7154 21.1696 19.8141 21.1696 20.4906 20.4911C21.1698 19.812 21.1698 18.7133 20.4906 18.0362L15.8249 13.3695C15.5784 13.1237 15.2735 12.9688 14.9547 12.9014C17.1834 9.69929 16.8778 5.25686 14.0241 2.40264ZM12.551 12.5514C10.1592 14.9431 6.26649 14.9431 3.87532 12.5514C1.48485 10.1597 1.48485 6.26799 3.87532 3.87628C6.26649 1.48527 10.1592 1.48527 12.551 3.87628C14.9429 6.26799 14.9429 10.1597 12.551 12.5514Z" fill="white"/>
</svg>
