<svg width="20" height="20" viewBox="0 0 20 20" fill="none" xmlns="http://www.w3.org/2000/svg">
<g clip-path="url(#clip0_4035_224)">
<path d="M19.3716 7.40667C18.6308 6.78503 17.5223 6.88229 16.9018 7.62175L15.234 9.5953V3.87249C15.234 3.39284 15.0346 2.92835 14.6868 2.59807L12.4611 0.483817C12.133 0.172137 11.7031 0.000457764 11.2506 0.000457764H1.75777C0.788555 0.000457764 0 0.789012 0 1.75823V18.2423C0 19.2115 0.788555 20 1.75777 20H13.4763C14.4455 20 15.2341 19.2115 15.2341 18.2423V15.0407C15.3061 14.9554 19.5748 9.89897 19.5883 9.88307C20.2128 9.13886 20.116 8.0312 19.3716 7.40667ZM11.7185 1.3946C14.0628 3.62147 13.8963 3.4587 13.9402 3.51604H11.7185V1.3946ZM14.0622 18.2423C14.0622 18.5653 13.7993 18.8282 13.4762 18.8282H1.75777C1.43469 18.8282 1.17184 18.5653 1.17184 18.2423V1.75823C1.17184 1.43515 1.43469 1.17229 1.75777 1.17229H10.5466V4.1019C10.5466 4.4255 10.809 4.68784 11.1326 4.68784H14.0622V10.9819C13.8105 11.2798 11.7896 13.6711 11.5712 13.9296C11.3967 14.1376 11.2711 14.3871 11.208 14.6511L10.6635 16.9306C10.612 17.1465 10.6868 17.373 10.8568 17.5156C11.027 17.6584 11.263 17.6925 11.4664 17.6044L13.6168 16.6723C13.7783 16.6023 13.9289 16.5072 14.0622 16.3929V18.2423ZM12.6686 14.4466L13.5661 15.1998L13.3665 15.4362C13.3084 15.5055 13.2338 15.5611 13.1508 15.5971L12.0756 16.0632L12.3479 14.9234C12.3689 14.8354 12.4108 14.7522 12.4676 14.6845L12.6686 14.4466ZM14.322 14.3043L13.4249 13.5516C13.5159 13.4439 16.46 9.96003 16.6636 9.71913L17.5588 10.4703L14.322 14.3043ZM18.6918 9.12847L18.3148 9.57495L17.42 8.82409L17.7982 8.37655C18.0048 8.13034 18.3728 8.09823 18.6184 8.30432C18.8689 8.51444 18.8965 8.88448 18.6918 9.12847Z" fill="white"/>
<path d="M8.78882 3.51575H2.92957C2.60597 3.51575 2.34363 3.77809 2.34363 4.10168C2.34363 4.42528 2.60597 4.68762 2.92957 4.68762H8.78882C9.11242 4.68762 9.37476 4.42528 9.37476 4.10168C9.37476 3.77809 9.11242 3.51575 8.78882 3.51575Z" fill="white"/>
<path d="M12.3044 7.07034H2.92957C2.60597 7.07034 2.34363 7.33269 2.34363 7.65628C2.34363 7.97987 2.60597 8.24222 2.92957 8.24222H12.3044C12.628 8.24222 12.8903 7.97987 12.8903 7.65628C12.8903 7.33269 12.628 7.07034 12.3044 7.07034Z" fill="white"/>
<path d="M12.3044 10.5859H2.92957C2.60597 10.5859 2.34363 10.8483 2.34363 11.1719C2.34363 11.4955 2.60597 11.7578 2.92957 11.7578H12.3044C12.628 11.7578 12.8903 11.4955 12.8903 11.1719C12.8903 10.8482 12.628 10.5859 12.3044 10.5859Z" fill="white"/>
<path d="M8.78882 14.1015H2.92957C2.60597 14.1015 2.34363 14.3638 2.34363 14.6874C2.34363 15.011 2.60597 15.2733 2.92957 15.2733H8.78882C9.11242 15.2733 9.37476 15.011 9.37476 14.6874C9.37476 14.3638 9.11242 14.1015 8.78882 14.1015Z" fill="white"/>
</g>
<defs>
<clipPath id="clip0_4035_224">
<rect width="20" height="20" fill="white"/>
</clipPath>
</defs>
</svg>
